<svg id="Capa_1" data-name="Capa 1" xmlns="http://www.w3.org/2000/svg" xmlns:xlink="http://www.w3.org/1999/xlink" viewBox="0 0 260 65"><defs><style>.cls-1{fill:none;}.cls-2{clip-path:url(#clip-path);}.cls-3{fill:#bdbdbd;}.cls-4{fill:#565655;}</style><clipPath id="clip-path"><path class="cls-1" d="M17.94,34.33c-2.24-2.76-.75-6.95,0-9a8.07,8.07,0,0,1,2-7.2c0-.14.08-.29.11-.45.35-1.48.89-3.71,3.58-4.59a7.88,7.88,0,0,1,4.11-5.19,4.68,4.68,0,0,1,2.95-2.23,2.63,2.63,0,0,1,1.72,0l.25-.15c.67-.44,2.08-1.36,5.71.46,3,1.44,1.76,5.25,1.55,5.84A7.24,7.24,0,0,1,40,16.18a9,9,0,0,1-.14,5.69l.05.19c.5,1.57.77,2.44.16,6.24a4.72,4.72,0,0,1-.3,3.49c.48,1.77.42,3.66-.11,4.39.68.94.42,2.76.15,3.73a2.49,2.49,0,0,1-.27.7c1.51,2.33,1.18,3.43.47,5.77l-.11.36a4.51,4.51,0,0,1,.27,4.45,3.17,3.17,0,0,1,.07,3.32,3,3,0,0,1,.13,3,3.38,3.38,0,0,1-.62,3.38,2.36,2.36,0,0,1-1.76.73,3.73,3.73,0,0,1-1.31-.27A4.93,4.93,0,0,1,32.65,60l-.22-.18a1.7,1.7,0,0,1-1.7-1.12A9.22,9.22,0,0,1,26.46,54c-1-.79-2.58-3.42-2.43-4.47a4.88,4.88,0,0,1-1.51-3.7A3.28,3.28,0,0,1,21.43,43c-.63-.78-1.58-2.09-1.48-2.56C17.08,37.51,17.73,34.93,17.94,34.33Z"/></clipPath></defs><title>Mesa de trabajo 1100</title><g class="cls-2"><path class="cls-1" d="M39.05,39a2.63,2.63,0,0,0,.09,1.37c.2-.06.5-.57.53-.7A1.49,1.49,0,0,0,39.05,39Z"/><path class="cls-1" d="M39.18,37.79h0a5,5,0,0,0-1.38-.41c-.06,0-.16,0-.19.06s-.07.19.2.7a4.46,4.46,0,0,1,.31,2.22c0,.61-.05,1.19.2,1.45a.69.69,0,0,0,.53.18c.89,0,1.93-2,2-2.33S40.15,38.17,39.18,37.79ZM40,39.7c0,.15-.41,1-.9,1s-.43-.93-.43-1.21a2.35,2.35,0,0,1,0-.52c.06-.28.2-.34.3-.34l.1,0C39.5,38.8,40,39.39,40,39.7Z"/><path class="cls-1" d="M36.82,44.25A.86.86,0,0,0,36.3,44l-.1,0a4.84,4.84,0,0,0-.34.83A3,3,0,0,0,36.82,44.25Z"/><path class="cls-1" d="M42.28,40.14a3.22,3.22,0,0,0-.94-1.86,5.92,5.92,0,0,0-2.16-1.68,5.59,5.59,0,0,0-1.87-.39,1.2,1.2,0,0,0-1,.38c-.16.27-.08.73.23,1.33A6.08,6.08,0,0,1,37,41.07c0,.85,0,1.56.32,1.93.2.2.52.18,1,.28h0c1.4,0,1.93-.66,2.67-1.6l.13-.16a5.25,5.25,0,0,1,.84-.86C42.17,40.46,42.25,40.4,42.28,40.14Zm-1.15-.42c-.05.42-1.17,2.64-2.3,2.64h0a1,1,0,0,1-.78-.3c-.35-.36-.32-1-.3-1.7a4.19,4.19,0,0,0-.26-2.06c-.26-.49-.33-.82-.2-1a.51.51,0,0,1,.48-.22,5.1,5.1,0,0,1,1.51.42h0C40.3,37.86,41.22,39,41.13,39.72Z"/><path class="cls-3" d="M52.18,55.52c-1.19-.31-4.79-1.27-9-9.65-1-2.06-.73-3-.45-3.37a1,1,0,0,1,.94-.4c.29,0,.65.49,1.1,1a12.61,12.61,0,0,0,3,2.87,15.9,15.9,0,0,0,5.33,1.9,15.14,15.14,0,0,1,1.92.49.16.16,0,0,0,.21-.1.16.16,0,0,0-.1-.21,15.19,15.19,0,0,0-2-.51,15.19,15.19,0,0,1-5.21-1.86A12,12,0,0,1,45,42.94c-.51-.63-.88-1.09-1.3-1.17a1.33,1.33,0,0,0-1.27.53c-.4.53-.65,1.61.43,3.72,1.85,3.66,4.82,8.65,9.24,9.83h0a.17.17,0,0,0,.17-.12A.18.18,0,0,0,52.18,55.52Z"/><path class="cls-3" d="M38.3,43.72h0Z"/><path class="cls-4" d="M20.61,11.37A23.4,23.4,0,0,1,33,5.81c4.66-.63,11.66-.1,18.59,6a.15.15,0,0,0,.11,0,.17.17,0,0,0,.13-.05.17.17,0,0,0,0-.24c-7-6.22-14.13-6.76-18.85-6.12a23.74,23.74,0,0,0-12.56,5.65.17.17,0,1,0,.23.24Z"/><path class="cls-4" d="M19.87,15.32c4.95-5.24,19.44-12.12,32.68.1a.17.17,0,0,0,.12,0,.18.18,0,0,0,.12-.05.17.17,0,0,0,0-.24c-13.43-12.38-28.13-5.4-33.15-.08a.16.16,0,0,0,0,.23A.15.15,0,0,0,19.87,15.32Z"/><path class="cls-4" d="M19,19.32a.21.21,0,0,0,.13-.05,22.55,22.55,0,0,1,6.6-5,24.29,24.29,0,0,1,9.84-2.67A22,22,0,0,1,44.39,13a27.69,27.69,0,0,1,9.15,6,.16.16,0,0,0,.23,0,.17.17,0,0,0,0-.24,27.93,27.93,0,0,0-9.26-6,22.13,22.13,0,0,0-8.94-1.44,24.61,24.61,0,0,0-10,2.7,23.12,23.12,0,0,0-6.71,5.08.16.16,0,0,0,0,.23A.15.15,0,0,0,19,19.32Z"/><path class="cls-4" d="M18.27,23.27a.18.18,0,0,0,.13-.06A25,25,0,0,1,35.68,14.6a22.12,22.12,0,0,1,9.25,1.5,28.76,28.76,0,0,1,9.59,6.45.17.17,0,1,0,.24-.24,29.18,29.18,0,0,0-9.71-6.52,22.44,22.44,0,0,0-9.39-1.53A25.37,25.37,0,0,0,18.14,23a.17.17,0,0,0,0,.24A.2.2,0,0,0,18.27,23.27Z"/><path class="cls-4" d="M17.42,27.19a.14.14,0,0,0,.1,0,.21.21,0,0,0,.14-.07,26,26,0,0,1,18.16-9.57,22.34,22.34,0,0,1,9.66,1.6,29.85,29.85,0,0,1,10,6.92.16.16,0,0,0,.23-.23,30.09,30.09,0,0,0-10.13-7,22.57,22.57,0,0,0-9.81-1.62A26.31,26.31,0,0,0,17.39,27,.17.17,0,0,0,17.42,27.19Z"/><path class="cls-4" d="M16.68,31.15a.19.19,0,0,0,.1,0,.17.17,0,0,0,.14-.07,27.36,27.36,0,0,1,7.82-6.94A25.43,25.43,0,0,1,36,20.59a22.51,22.51,0,0,1,10.07,1.7,31,31,0,0,1,10.43,7.39.16.16,0,0,0,.24,0,.17.17,0,0,0,0-.23A31.46,31.46,0,0,0,46.19,22,23,23,0,0,0,36,20.25a25.66,25.66,0,0,0-11.4,3.64,27.75,27.75,0,0,0-7.92,7A.17.17,0,0,0,16.68,31.15Z"/><path class="cls-4" d="M16.62,36.19a59.77,59.77,0,0,1,8.58-8.4,19.28,19.28,0,0,1,11.35-4.34,18.3,18.3,0,0,1,10.62,3.21,100.92,100.92,0,0,1,8.24,6l.48.36a8.47,8.47,0,0,1,1,.84.16.16,0,0,0,.23,0,.16.16,0,0,0,0-.24,8.25,8.25,0,0,0-1.06-.88c-.16-.12-.32-.23-.47-.36a101.19,101.19,0,0,0-8.27-6,18.66,18.66,0,0,0-10.81-3.27A19.74,19.74,0,0,0,25,27.52,60.41,60.41,0,0,0,16.37,36a.17.17,0,0,0,0,.24.15.15,0,0,0,.11,0A.18.18,0,0,0,16.62,36.19Z"/><path class="cls-4" d="M16.66,40.38a.21.21,0,0,0,.1,0,43.7,43.7,0,0,0,4.83-4.73c1.27-1.37,2.59-2.79,4-4.11,2.7-2.57,5.79-5.08,11.31-5.17,4.63-.07,7.5,2.12,10.27,4.57a41.34,41.34,0,0,0,8.69,5.92,9.56,9.56,0,0,0,.91.39,2.94,2.94,0,0,1,.82.4.16.16,0,0,0,.23,0,.16.16,0,0,0,0-.24,2.85,2.85,0,0,0-.94-.48c-.27-.11-.59-.23-.89-.38a40.84,40.84,0,0,1-8.61-5.88C44.58,28.19,41.71,26,37.1,26h-.24c-5.64.09-8.91,2.76-11.53,5.26-1.39,1.32-2.71,2.74-4,4.12a44,44,0,0,1-4.78,4.7.15.15,0,0,0,0,.23A.17.17,0,0,0,16.66,40.38Z"/><path class="cls-4" d="M56.34,40.69a18.85,18.85,0,0,1-9-5.77l-.25-.32c-2.17-2.68-4.63-5.73-9.88-5.73h-.05c-6.33,0-9,3.12-11.52,6.11-.69.81-1.38,1.65-2,2.46-2.49,3-4.84,5.9-6.87,6.74a.17.17,0,0,0-.09.21.17.17,0,0,0,.16.11h.06c2.1-.87,4.48-3.76,7-6.83.66-.81,1.35-1.67,2-2.48,2.5-2.93,5.08-6,11.26-6h.05c5.09,0,7.39,2.86,9.62,5.62l.25.31A19.19,19.19,0,0,0,56.24,41a10.63,10.63,0,0,0,1.54.32l.45.09a.18.18,0,0,0,.22,0,.16.16,0,0,0,0-.23c-.07-.08-.17-.09-.62-.16A12.89,12.89,0,0,1,56.34,40.69Z"/><path class="cls-4" d="M29.56,47.34c1.68-2.59,2.39-5.44,1.9-7.64-.39-1.74-1.31-2.26-2-2.4a2.85,2.85,0,0,0-.41,0c-1.79,0-3.55,2.09-5.81,5.46-1.32,2-3.6,4.24-5.7,4.87a1.39,1.39,0,0,0-.94,1.73,1.39,1.39,0,0,0,1.33,1,1.34,1.34,0,0,0,.4-.06c2.47-.73,5.24-3,7.23-6l0,0c.63-.93,2.28-3.4,2.9-3.4a.08.08,0,0,1,.07,0c.49.48.22,2.6-1.31,5a15.15,15.15,0,0,1-7.51,5.81,1.43,1.43,0,0,0-.77.74,1.37,1.37,0,0,0,0,1.07,1.4,1.4,0,0,0,1.3.89,1.24,1.24,0,0,0,.5-.1A17.94,17.94,0,0,0,29.56,47.34Zm-9,6.58a1,1,0,0,1-.38.07,1.07,1.07,0,0,1-1-.67,1,1,0,0,1,0-.81,1,1,0,0,1,.59-.56,15.53,15.53,0,0,0,7.66-6c1.27-1.94,2.08-4.57,1.27-5.37a.4.4,0,0,0-.31-.13c-.73,0-2,1.75-3.17,3.55l0,0c-2,2.89-4.65,5.14-7,5.85a1,1,0,0,1-.3,0,1.06,1.06,0,0,1-.3-2.07c2.19-.65,4.53-3,5.89-5,2.14-3.19,3.9-5.31,5.53-5.31l.35,0c.61.12,1.41.58,1.75,2.14.47,2.12-.22,4.88-1.85,7.39A17.63,17.63,0,0,1,20.6,53.92Z"/><path class="cls-4" d="M55.81,44.26c-5.11-1.24-7.12-3.1-9.71-6.8s-4.89-5.8-9.2-5.8h-.27c-1.64,0-4.53.32-5.54,2.48-.5,1.06.09,2.26.66,3.43a11.28,11.28,0,0,1,.63,1.5,9.18,9.18,0,0,1,.13,4.22,15.37,15.37,0,0,1-3.27,6.43A23.16,23.16,0,0,1,22,55.28a1.4,1.4,0,0,0-.66,1.86,1.42,1.42,0,0,0,1.26.79,1.38,1.38,0,0,0,.6-.13c1.88-.9,6.05-3.32,8.34-6a20.32,20.32,0,0,0,3.7-8.14c.76-3.77-.07-5.55-.57-6.61A2.06,2.06,0,0,1,34.39,36c.14-.8.85-1.19,2.17-1.19l.57,0h.24c2.64,0,4.56,2,6.63,4.94C47,44,49.39,45.57,55.15,47a1.86,1.86,0,0,0,.33,0,1.4,1.4,0,0,0,.33-2.75Zm.7,1.61a1.06,1.06,0,0,1-1.28.77c-5.67-1.37-8-2.9-10.95-7.1-2.13-3-4.12-5.08-6.91-5.08h-.22l-.59,0c-1.48,0-2.32.49-2.5,1.46a2.22,2.22,0,0,0,.34,1.28c.51,1.09,1.28,2.74.54,6.41a20.12,20.12,0,0,1-3.62,8,28.28,28.28,0,0,1-8.23,5.93A1,1,0,0,1,21.68,57a1.06,1.06,0,0,1,.5-1.42,23.56,23.56,0,0,0,7.32-5.65c1.78-2.24,3.13-4.89,3.34-6.6A9.89,9.89,0,0,0,32.71,39a10.86,10.86,0,0,0-.66-1.56c-.54-1.09-1.09-2.23-.66-3.14.93-2,3.68-2.29,5.24-2.29h.28c4.18,0,6.36,2,8.92,5.66s4.69,5.67,9.9,6.94a1,1,0,0,1,.65.47A1.05,1.05,0,0,1,56.51,45.87Z"/><path class="cls-4" d="M51.35,56.93c-2.35-.47-5.69-3-7.87-7.63-1-2.11-2.86-4.56-4.88-4.56h-.07c-1.41,0-2.61,1.25-3.56,3.6-.74,1.83-2.29,5.64-9.06,9.26L25.2,58a.17.17,0,0,0-.06.23.18.18,0,0,0,.15.08.13.13,0,0,0,.08,0l.7-.38c2.23-1.2,6.87-3.68,9.21-9.44.9-2.21,2-3.35,3.26-3.38h.06c1.86,0,3.63,2.34,4.58,4.36,2.22,4.73,5.67,7.33,8.1,7.82a.17.17,0,1,0,.07-.33Z"/><path class="cls-4" d="M48.57,59.1l-.47-.23a11.74,11.74,0,0,1-6.9-7.47c-.69-2-1.16-3.3-2.26-3.16-.74.09-1.29,1.24-1.93,2.58-.25.53-.51,1.07-.79,1.57a18,18,0,0,1-6.83,6.69,8.79,8.79,0,0,0-.88.56.17.17,0,0,0,0,.23.15.15,0,0,0,.13.07.17.17,0,0,0,.1,0c.2-.15.49-.33.85-.55a18.18,18.18,0,0,0,7-6.81c.29-.51.55-1,.8-1.58.58-1.2,1.12-2.33,1.67-2.4s1,.31,1.9,2.94A12.09,12.09,0,0,0,48,59.17l.47.23a.16.16,0,0,0,.22-.07A.17.17,0,0,0,48.57,59.1Z"/><path class="cls-4" d="M28.54,36.48l.24,0,.41,0a1.48,1.48,0,0,1,.58.1.56.56,0,0,0,.26.07.32.32,0,0,0,.26-.12c.17-.22.09-.67-.05-1.27,0-.1,0-.2-.07-.28a.39.39,0,0,0-.39-.34c-.53,0-1.4.89-1.56,1.37a.36.36,0,0,0,.1.45A.33.33,0,0,0,28.54,36.48Zm.17-.71a2.18,2.18,0,0,1,1.07-.84s0,0,.06.08,0,.18.07.29c.06.26.21.88.13,1s0,0-.13,0a1.63,1.63,0,0,0-.72-.13l-.43,0h-.24A.91.91,0,0,1,28.71,35.77Z"/><path class="cls-4" d="M44.18,60.45a5.49,5.49,0,0,1-3.61-3.35C40,55.28,39.5,54.49,39,54.45s-.77.49-1,1c-1,2.05-3.13,3.65-5,5a.16.16,0,0,0,0,.23.17.17,0,0,0,.24,0c2-1.32,4.1-3,5.16-5.08.33-.65.55-.77.67-.76s.66.45,1.3,2.41a5.75,5.75,0,0,0,3.85,3.57h0a.17.17,0,0,0,.16-.12A.16.16,0,0,0,44.18,60.45Z"/><path class="cls-4" d="M38.77,59.57a.18.18,0,0,0-.23.07,3.71,3.71,0,0,1-1.15,1.27.17.17,0,0,0,0,.23.16.16,0,0,0,.14.08.16.16,0,0,0,.09,0,4,4,0,0,0,1.27-1.4A.16.16,0,0,0,38.77,59.57Z"/><path class="cls-4" d="M39.3,37.48h0a5.1,5.1,0,0,0-1.51-.42.51.51,0,0,0-.48.22c-.13.21-.06.55.2,1a4.15,4.15,0,0,1,.26,2c0,.72,0,1.34.3,1.7a1,1,0,0,0,.78.3h0c1.13,0,2.25-2.22,2.3-2.64C41.22,39,40.3,37.87,39.3,37.48Zm1.49,2.18c0,.34-1.08,2.33-2,2.33a.69.69,0,0,1-.53-.18c-.25-.26-.23-.84-.2-1.45a4.46,4.46,0,0,0-.31-2.22c-.27-.51-.22-.67-.2-.7s.13-.06.19-.06a5,5,0,0,1,1.38.41h0C40.15,38.17,40.85,39.19,40.79,39.66Z"/><path class="cls-4" d="M39.12,38.65l-.1,0c-.1,0-.24.06-.3.34a2.35,2.35,0,0,0,0,.52c0,.28,0,1.21.43,1.21s.88-.85.9-1C40,39.39,39.5,38.8,39.12,38.65Zm0,1.71A2.63,2.63,0,0,1,39.05,39a1.49,1.49,0,0,1,.62.67C39.64,39.79,39.34,40.3,39.14,40.36Z"/><path class="cls-4" d="M35.55,45.05a.22.22,0,0,0,.21.1h.05a2.74,2.74,0,0,0,1.35-.83.23.23,0,0,0,0-.23,1.16,1.16,0,0,0-.83-.46.72.72,0,0,0-.29.06l0,0,0,0C35.58,44.45,35.45,44.88,35.55,45.05ZM36.2,44l.1,0a.86.86,0,0,1,.52.28,3,3,0,0,1-1,.57A4.84,4.84,0,0,1,36.2,44Z"/><path class="cls-4" d="M40.83,43.53a1,1,0,0,0-.39.21.48.48,0,0,0,0,.75,2.43,2.43,0,0,0,.68.47.36.36,0,0,0,.45-.08C41.85,44.51,41.2,43.31,40.83,43.53Zm0,.83a.69.69,0,0,1-.23-.22c0-.09.11-.19.17-.24l.09-.07h0l0,0a1.1,1.1,0,0,1,.17.25,1.28,1.28,0,0,1,.16.5A1.54,1.54,0,0,1,40.85,44.36Z"/><path class="cls-3" d="M41.29,44.69v0S41.3,44.68,41.29,44.69Z"/><path class="cls-3" d="M55.42,49.8A24.8,24.8,0,0,1,51,48.58a13.89,13.89,0,0,1-4.67-2.45c-1.67-1.67-2-1.38-2.14-1.29s-.5.41,1.11,2.91c1.8,2.8,4.47,6.16,9.06,7.21h0a.17.17,0,0,0,0-.33c-2.35-.54-5.48-1.82-8.85-7.06-1.36-2.12-1.18-2.47-1.18-2.47s.57.14,1.7,1.26c1.88,1.89,7.72,3.6,9.32,3.77a.17.17,0,0,0,0-.33Z"/><path class="cls-3" d="M54.85,51.28a15,15,0,0,1-5.75-1.9c-.14-.1-.27-.17-.39-.1a.18.18,0,0,0-.08.18c0,.38,2.69,2.7,5.68,3.63h0a.15.15,0,0,0,.16-.12.15.15,0,0,0-.11-.2A14.64,14.64,0,0,1,49.59,50a16.69,16.69,0,0,0,5.21,1.57.16.16,0,0,0,.19-.14A.18.18,0,0,0,54.85,51.28Z"/></g><path class="cls-4" d="M43.75,61.36A2.4,2.4,0,0,1,42,60.63a3.4,3.4,0,0,1-.62-3.39,3,3,0,0,1,.13-3.05,3.19,3.19,0,0,1,.06-3.33,4.55,4.55,0,0,1,.28-4.46L41.73,46c-.71-2.35-1-3.45.47-5.79a2.53,2.53,0,0,1-.27-.69c-.27-1-.53-2.8.15-3.75-.54-.73-.59-2.63-.11-4.4a4.75,4.75,0,0,1-.3-3.5c-.61-3.81-.34-4.68.15-6.26l.06-.19a9,9,0,0,1-.14-5.7,7.22,7.22,0,0,1,.08-4.41c-.21-.59-1.44-4.41,1.55-5.86C47,3.66,48.42,4.58,49.1,5a1.24,1.24,0,0,0,.25.15,2.61,2.61,0,0,1,1.73,0A4.61,4.61,0,0,1,54,7.4a7.9,7.9,0,0,1,4.13,5.2c2.7.88,3.23,3.12,3.58,4.61,0,.16.08.3.11.44a8.11,8.11,0,0,1,2,7.23c.76,2.09,2.26,6.3,0,9.06.21.61.87,3.19-2,6.14.11.47-.85,1.77-1.47,2.56a3.34,3.34,0,0,1-1.1,2.88,4.9,4.9,0,0,1-1.51,3.71c.15,1.06-1.45,3.69-2.45,4.49a9.17,9.17,0,0,1-4.28,4.67,1.68,1.68,0,0,1-1.7,1.12l-.22.18a5,5,0,0,1-4.08,1.4A3.74,3.74,0,0,1,43.75,61.36ZM42.58,40a.29.29,0,0,1,.1.12.25.25,0,0,1,0,.19c-1.51,2.27-1.22,3.23-.51,5.57l.14.46a.21.21,0,0,1,0,.19c-.54.75-1.14,2-.24,4.27a.22.22,0,0,1-.06.24,2.69,2.69,0,0,0,0,3,.24.24,0,0,1,0,.26,2.51,2.51,0,0,0-.14,2.78.22.22,0,0,1,0,.21,2.93,2.93,0,0,0,.5,3,2.23,2.23,0,0,0,2.65.33h.11a4.5,4.5,0,0,0,3.79-1.29,3.67,3.67,0,0,1,.32-.25.22.22,0,0,1,.13,0,1.26,1.26,0,0,0,1.37-.9.23.23,0,0,1,.14-.15c1.88-.65,4.11-3.71,4.11-4.42a.21.21,0,0,1,.09-.18c1-.73,2.59-3.55,2.33-4.18a.23.23,0,0,1,.06-.25,4.31,4.31,0,0,0,1.45-3.54.24.24,0,0,1,.11-.23c1.19-.68,1-2.6,1-2.62a.22.22,0,0,1,0-.16,9.71,9.71,0,0,0,1.45-2.22.19.19,0,0,1-.07-.12.19.19,0,0,1,.06-.2c3.16-3.13,2-5.8,2-5.91a.21.21,0,0,1,0-.23c2.22-2.6.7-6.78,0-8.8a.2.2,0,0,1,0-.13,7.57,7.57,0,0,0-2-6.91.31.31,0,0,1,0-.1c-.05-.16-.09-.33-.13-.51-.36-1.5-.84-3.55-3.41-4.33a.24.24,0,0,1-.15-.16s-.81-3.7-4-5.05a.27.27,0,0,1-.11-.1A4.16,4.16,0,0,0,51,5.59a2.36,2.36,0,0,0-1.39,0c-.24.16-.47,0-.72-.15-.61-.4-1.87-1.23-5.3.48-2.87,1.39-1.37,5.23-1.31,5.39a.29.29,0,0,1,0,.16,6.85,6.85,0,0,0-.09,4.24.2.2,0,0,1,0,.15,8.75,8.75,0,0,0,.14,5.56.22.22,0,0,1,0,.14l-.08.26c-.49,1.57-.74,2.36-.13,6.1a.31.31,0,0,1,0,.1,4.36,4.36,0,0,0,.3,3.31.22.22,0,0,1,0,.16c-.53,1.86-.38,3.78.09,4.19a.19.19,0,0,1,.08.15.23.23,0,0,1-.06.16C41.66,36.86,42.29,39.69,42.58,40Zm0,0Z"/><path class="cls-4" d="M56.26,40.86a.23.23,0,0,1-.16-.06.23.23,0,0,1,0-.31c1-1,1.09-3.24.14-4.64-.58-.86-2-2.08-5.12-.7-2.3.94-4,1.15-5.18.64a4.33,4.33,0,0,1-2.09-2.72c-.45-1.14-.71-1.72-1.54-1.54a.22.22,0,0,1-.26-.17.22.22,0,0,1,.17-.26c1.22-.26,1.64.79,2,1.81a3.94,3.94,0,0,0,1.86,2.48c1.08.46,2.66.25,4.84-.64,1.17-.52,4.07-1.49,5.65.86,1.07,1.58,1,4.06-.19,5.19A.24.24,0,0,1,56.26,40.86Z"/><path class="cls-4" d="M60,40.47A4.36,4.36,0,0,1,57,39a.21.21,0,0,1,0-.3.22.22,0,0,1,.31,0c.08.1,2.1,2.53,4.57.63a.22.22,0,0,1,.3,0,.22.22,0,0,1,0,.31A3.52,3.52,0,0,1,60,40.47Z"/><path class="cls-4" d="M57.55,49.37h0a.21.21,0,0,1-.21-.22c0-.34,0-1.06-.22-1.23,0,0-.1-.08-.33,0a.22.22,0,0,1-.11-.42.78.78,0,0,1,.71.09c.37.29.39.94.38,1.59A.21.21,0,0,1,57.55,49.37Z"/><path class="cls-4" d="M54.75,53.83c-1.45,0-1.75-.7-1.79-1.15a.22.22,0,0,1,.2-.24.22.22,0,0,1,.23.2c.07.72,1,.8,1.74.74a.21.21,0,0,1,.23.2.22.22,0,0,1-.2.24Z"/><path class="cls-4" d="M59.5,38.77a.2.2,0,0,1-.15-.06.22.22,0,0,1,0-.31c1.55-1.61,1.91-2.1,1.79-4.92a.22.22,0,0,1,.21-.23.21.21,0,0,1,.22.21c.13,3-.32,3.59-1.91,5.24A.19.19,0,0,1,59.5,38.77Z"/><path class="cls-4" d="M60,22.71a.22.22,0,0,1,0-.43,1.09,1.09,0,0,0,1-.88,1.52,1.52,0,0,0-1-1.54.22.22,0,0,1-.09-.3.21.21,0,0,1,.29-.09,1.94,1.94,0,0,1,1.21,2A1.52,1.52,0,0,1,60,22.71Z"/><path class="cls-4" d="M62.39,31.34a.22.22,0,0,1-.22-.19c-.06-.57-.08-1-.1-1.44a3.57,3.57,0,0,0-1.16-3,.22.22,0,0,1,0-.31.21.21,0,0,1,.3,0,4,4,0,0,1,1.29,3.26c0,.4,0,.86.09,1.41a.21.21,0,0,1-.19.24Z"/><path class="cls-4" d="M55,27.13a.21.21,0,0,1-.21-.17.22.22,0,0,1,.17-.26,2.66,2.66,0,0,0,2.26-2.89,2,2,0,0,0-2.39-1.59.22.22,0,1,1,0-.44,2.41,2.41,0,0,1,2.86,2A3.09,3.09,0,0,1,55,27.12Z"/><path class="cls-4" d="M47,33.81a.21.21,0,0,1-.19-.12.21.21,0,0,1,.09-.29c4.24-2.35,3.78-4.22,3.23-6.38A6.55,6.55,0,0,1,50,23.23a.22.22,0,0,1,.28-.14.23.23,0,0,1,.14.28,6,6,0,0,0,.16,3.55c.53,2.14,1.09,4.35-3.45,6.86A.23.23,0,0,1,47,33.81Z"/><path class="cls-4" d="M63.65,34.12l-.12,0A.94.94,0,0,0,63,34c-.7,0-1.87,0-3.69-1.85-2.43-2.91-3.78-2.47-5.34-2a4.88,4.88,0,0,1-3.14.25.21.21,0,0,1-.14-.27A.22.22,0,0,1,51,30a4.54,4.54,0,0,0,2.88-.24c1.57-.51,3.19-1,5.8,2.09,1.67,1.74,2.68,1.72,3.35,1.71a1.32,1.32,0,0,1,.77.13.22.22,0,0,1,.07.3A.26.26,0,0,1,63.65,34.12Z"/><path class="cls-4" d="M56.15,44a6.6,6.6,0,0,1-4.57-1.91.22.22,0,1,1,.3-.31c3,2.86,6.42,1.63,8.2.64a.22.22,0,0,1,.29.09.21.21,0,0,1-.08.29A8.47,8.47,0,0,1,56.15,44Z"/><path class="cls-4" d="M46.56,49.57h-.32a5,5,0,0,1-4.36-3.05.21.21,0,0,1,.12-.28.22.22,0,0,1,.28.13,4.58,4.58,0,0,0,4,2.76,2.9,2.9,0,0,0,2.89-1.29c.62-1,.59-1.38.32-2.86a2.06,2.06,0,0,1-.4-1.54c.15-.71.84-1.13,1.63-1.63,1.21-.75,2.59-1.61,2.46-3.78a.22.22,0,0,1,.21-.23.23.23,0,0,1,.23.21c.14,2.42-1.42,3.39-2.67,4.17-.71.44-1.32.82-1.44,1.35a1.75,1.75,0,0,0,.37,1.25.11.11,0,0,1,0,.08c.29,1.55.34,2-.36,3.19A3.22,3.22,0,0,1,46.56,49.57Z"/><path class="cls-4" d="M53.07,49.32a.19.19,0,0,1-.1,0,.21.21,0,0,1-.09-.29,4,4,0,0,1,2.59-2.28,2.28,2.28,0,0,0,1.68-1.58.21.21,0,0,1,.24-.14l.71.17c.5.12.68.16.87,0a.22.22,0,0,1,.3.09.21.21,0,0,1-.09.29,1.51,1.51,0,0,1-1.18,0l-.51-.13a2.63,2.63,0,0,1-1.88,1.67,3.6,3.6,0,0,0-2.35,2.07A.22.22,0,0,1,53.07,49.32Z"/><path class="cls-4" d="M51.28,51.22a3.73,3.73,0,0,1-2.15-.61,1.88,1.88,0,0,1-.81-1.83.22.22,0,0,1,.43,0,1.46,1.46,0,0,0,.63,1.43,3.92,3.92,0,0,0,3.62.16.22.22,0,0,1,.29.11.21.21,0,0,1-.11.28A4.42,4.42,0,0,1,51.28,51.22Z"/><path class="cls-4" d="M44,56.67a.19.19,0,0,1-.14-.05.22.22,0,0,1,0-.31c.51-.57,1.22-.43,2-.29a2.67,2.67,0,0,0,3-.73.23.23,0,0,1,.23-.07.2.2,0,0,1,.15.18.39.39,0,0,0,.14.27,1.59,1.59,0,0,0,1,0,2.29,2.29,0,0,1,.49,0,.21.21,0,0,1,.19.24.21.21,0,0,1-.23.19,2.22,2.22,0,0,0-.39,0A1.76,1.76,0,0,1,49,56a.77.77,0,0,1-.18-.18,3.17,3.17,0,0,1-3.12.62c-.76-.15-1.24-.22-1.56.15A.23.23,0,0,1,44,56.67Z"/><path class="cls-4" d="M53.37,23.5c-.63,0-1-.62-1.15-.83l0,0c-.87-1.2-1.86-2.3-3.26-2.17a7.08,7.08,0,0,1-6.71,1.23.21.21,0,1,1,.15-.4,6.71,6.71,0,0,0,6.35-1.21.21.21,0,0,1,.1,0c1.66-.19,2.81,1.07,3.73,2.33,0,0,0,0,0,.07s.4.65.81.63.82-.33,1.48-1.72l0-.07a7,7,0,0,1,4.38-1.75c1.28-.13,2-.2,2.13-1.78a.22.22,0,0,1,.24-.2.22.22,0,0,1,.19.24c-.18,1.94-1.21,2-2.51,2.17a6.55,6.55,0,0,0-4.11,1.62c-.6,1.26-1.2,1.89-1.83,1.92Z"/><path class="cls-4" d="M49.73,17a.18.18,0,0,1-.16-.08.2.2,0,0,1,0-.3,2.21,2.21,0,0,0,.74-2.24,2.51,2.51,0,0,0-1.69-1.91A2.72,2.72,0,0,0,46,13.59a.22.22,0,0,1-.31,0,.23.23,0,0,1,0-.31,3.1,3.1,0,0,1,3.07-1.23,3,3,0,0,1,2,2.24,2.61,2.61,0,0,1-.9,2.66A.19.19,0,0,1,49.73,17Z"/><path class="cls-4" d="M61.78,27a1.93,1.93,0,0,1-1.3-.54,9.78,9.78,0,0,0-2-1.44,3.36,3.36,0,0,1-1.28-1.1.22.22,0,0,1,0-.31.22.22,0,0,1,.3.05,3,3,0,0,0,1.15,1,9.6,9.6,0,0,1,2,1.49,1.42,1.42,0,0,0,1.36.37,2.15,2.15,0,0,0,1.32-1.64.23.23,0,0,1,.27-.15.21.21,0,0,1,.15.27,2.6,2.6,0,0,1-1.62,1.94A2,2,0,0,1,61.78,27Z"/><path class="cls-4" d="M53.15,17.17a4,4,0,0,1-1.2-.23l-.31-.1a.22.22,0,0,1-.15-.27.22.22,0,0,1,.27-.15l.32.1c1.12.35,1.35.42,4.3-.8a3.54,3.54,0,0,1,2.15.11c.61.16,1.19.31,1.45.1s.23-.42.22-.86a.22.22,0,0,1,.43,0,1.37,1.37,0,0,1-.38,1.2c-.43.35-1.11.18-1.83,0a3.16,3.16,0,0,0-1.87-.14A10.09,10.09,0,0,1,53.15,17.17Z"/><path class="cls-4" d="M51.53,13.56a3.61,3.61,0,0,1-.53-.05.22.22,0,0,1-.17-.25.22.22,0,0,1,.25-.18,1.9,1.9,0,0,0,1.53-.31c.59-.36,1.07-.54,2.18.25a1.66,1.66,0,0,0,.77-.3,2.52,2.52,0,0,1,2.66-.1.22.22,0,1,1-.15.41c-1.33-.52-1.79-.24-2.28.06a2,2,0,0,1-1.07.37h0a.22.22,0,0,1-.13,0c-1-.74-1.3-.56-1.76-.28A2.27,2.27,0,0,1,51.53,13.56Z"/><path class="cls-4" d="M54.64,11.52a.19.19,0,0,1-.1,0A3.8,3.8,0,0,0,51,11a.23.23,0,0,1-.27-.16.21.21,0,0,1,.16-.26,4.2,4.2,0,0,1,3.88.54.22.22,0,0,1,.08.3A.21.21,0,0,1,54.64,11.52Z"/><path class="cls-4" d="M52.25,10.77a.28.28,0,0,1-.17-.07.22.22,0,0,1,0-.31,2.07,2.07,0,0,0,.28-1c.12-.89.3-2.11,1.51-2a.22.22,0,1,1,0,.43c-.75,0-.9.63-1,1.66a2.2,2.2,0,0,1-.42,1.28A.24.24,0,0,1,52.25,10.77Z"/><path class="cls-4" d="M54.43,22.78a.28.28,0,0,1-.17-.07.21.21,0,0,1,0-.31.83.83,0,0,0,.31-.67c-.07-1.22-2.55-2.95-3.88-3.88-.34-.23-.62-.42-.79-.56-1.56-.78-3.41-.38-4.76-.1a3.61,3.61,0,0,1-1.76.15.23.23,0,0,1-.12-.29.22.22,0,0,1,.29-.11,4.1,4.1,0,0,0,1.5-.18c1.42-.3,3.36-.71,5.06.15l0,0,.79.57c1.49,1,4,2.77,4.06,4.2a1.23,1.23,0,0,1-.46,1A.24.24,0,0,1,54.43,22.78Z"/><path class="cls-4" d="M45.88,31.24h0a.22.22,0,0,1-.17-.26c.32-1.67-.62-1.95-1.81-2.31a3.07,3.07,0,0,1-2-1.27.22.22,0,0,1,.09-.3.22.22,0,0,1,.29.09c.32.62,1,.83,1.8,1.06,1.17.36,2.5.76,2.11,2.82A.22.22,0,0,1,45.88,31.24Z"/><path class="cls-4" d="M48.21,26.63a.21.21,0,0,1-.18-.09,3.09,3.09,0,0,0-2.58-1.4,3.83,3.83,0,0,1-2.3-.86.22.22,0,0,1,0-.31.21.21,0,0,1,.3,0,3.51,3.51,0,0,0,2.08.76,3.51,3.51,0,0,1,2.88,1.58.21.21,0,0,1-.06.3A.19.19,0,0,1,48.21,26.63Z"/><path class="cls-4" d="M47.19,46.71a.23.23,0,0,1-.11,0c-.22-.13-.45-.26-.67-.37-.78-.42-1.52-.82-1.75-1.46-.29-.81.05-1.89,1-3.05a.22.22,0,0,1,.34.27c-.83,1-1.15,2-.91,2.63.17.49.81.83,1.54,1.22l.69.38a.22.22,0,0,1,.08.3A.21.21,0,0,1,47.19,46.71Z"/><path class="cls-4" d="M45,60.21h0a.23.23,0,0,1-.17-.26,1.15,1.15,0,0,0,0-.87c-.17-.25-.59-.32-1.08-.4a2.59,2.59,0,0,1-2.27-1.37.22.22,0,0,1,.1-.29.22.22,0,0,1,.29.11,2.19,2.19,0,0,0,1.95,1.12,1.87,1.87,0,0,1,1.37.59,1.5,1.5,0,0,1,.11,1.2A.23.23,0,0,1,45,60.21Z"/><path class="cls-4" d="M46.56,55a2.87,2.87,0,0,1-1.84-.78,1.84,1.84,0,0,1-1.39.68,2.44,2.44,0,0,1-1.95-1,.22.22,0,1,1,.34-.27,2.05,2.05,0,0,0,1.6.8,1.5,1.5,0,0,0,1.2-.7.22.22,0,0,1,.16-.09.23.23,0,0,1,.18.06,2.4,2.4,0,0,0,1.8.82,1.64,1.64,0,0,0,1.21-.72.22.22,0,0,1,.35.25,2,2,0,0,1-1.53.9Z"/><path class="cls-4" d="M49.59,40.33a.23.23,0,0,1-.21-.14c-.27-.67-.93-.75-2.08-.82-1.55-.11-3.69-.25-5.2-3a.24.24,0,0,1,.09-.3.22.22,0,0,1,.3.09c1.39,2.56,3.3,2.68,4.84,2.78,1.11.07,2.07.14,2.46,1.1a.22.22,0,0,1-.12.28Z"/><path class="cls-4" d="M49.3,59.51h0A1.7,1.7,0,0,1,48,59a.82.82,0,0,1-.1-.69.22.22,0,1,1,.42.11.4.4,0,0,0,0,.34c.09.13.33.29,1,.35a.22.22,0,0,1,.2.24A.23.23,0,0,1,49.3,59.51Z"/><path class="cls-4" d="M43.61,52.22a.23.23,0,0,1-.17-.37A2.64,2.64,0,0,1,47,51.06l.16.08a.2.2,0,0,1,.17,0,.21.21,0,0,1,.15.27.25.25,0,0,1-.15.18c-.15.07-.3,0-.52-.12a2.21,2.21,0,0,0-3,.69A.21.21,0,0,1,43.61,52.22Z"/><path class="cls-4" d="M46.26,9.37A1.85,1.85,0,0,1,45.18,9c-.35-.22-.55-.36-1.32.16a.22.22,0,1,1-.24-.36c.93-.63,1.33-.47,1.79-.17s.76.48,1.92,0a.22.22,0,0,1,.15.41A3.55,3.55,0,0,1,46.26,9.37Z"/><path class="cls-4" d="M43.6,12.38a2.34,2.34,0,0,1-1.71-.89.23.23,0,0,1,0-.31.22.22,0,0,1,.31,0c1.26,1.36,2.19.68,3.6-.35l.45-.33a.22.22,0,0,1,.31.05.23.23,0,0,1-.06.31l-.44.32A4.68,4.68,0,0,1,43.6,12.38Z"/><path class="cls-4" d="M48,12.4a.21.21,0,0,1-.19-.13.22.22,0,0,1,.1-.29,2,2,0,0,0,1-2,1.1,1.1,0,0,0-.81-1,.21.21,0,0,1,.08-.42A1.46,1.46,0,0,1,49.41,10a2.36,2.36,0,0,1-1.29,2.4Z"/><path class="cls-4" d="M42,16.24a.21.21,0,0,1-.13,0,.22.22,0,0,1,0-.31,3.27,3.27,0,0,1,3.33-1.14,4.93,4.93,0,0,0,2.24-.17.21.21,0,0,1,.28.12.22.22,0,0,1-.13.28,5.27,5.27,0,0,1-2.43.21c-1.1-.09-2-.17-2.95,1A.2.2,0,0,1,42,16.24Z"/><g id="Tipo"><path class="cls-4" d="M89.54,27.22l-.52.57a6.51,6.51,0,0,0-3.94-1.17c-3.55,0-6.48,2.09-6.48,7.16,0,4.81,2.85,7.14,6.37,7.14a6.67,6.67,0,0,0,4.24-1.3l.55.56A7.74,7.74,0,0,1,85,41.66c-4.19,0-7.33-2.74-7.33-7.88,0-5.3,3.31-7.9,7.41-7.9A7.19,7.19,0,0,1,89.54,27.22Z"/><path class="cls-4" d="M97.69,40.7h7.87l-.16.74H96.73V26.12h1Z"/><path class="cls-4" d="M115.54,22.64l-5.08,1.71-.28-.49,4.9-2Zm-2.18,18.8h-1V26.12h1Z"/><path class="cls-4" d="M134.6,41.44h-1.2L123.69,27c.08.9.14,2.09.14,4.78v9.66h-.93V26.12h1.2l9.68,14.44c-.05-.87-.11-2.4-.11-4.44v-10h.93Z"/><path class="cls-4" d="M145.07,41.44h-.95V26.12h.95Z"/><path class="cls-4" d="M165.31,27.22l-.52.57a6.53,6.53,0,0,0-3.94-1.17c-3.55,0-6.48,2.09-6.48,7.16,0,4.81,2.84,7.14,6.37,7.14a6.67,6.67,0,0,0,4.24-1.3l.55.56a7.74,7.74,0,0,1-4.81,1.48c-4.19,0-7.34-2.74-7.34-7.88,0-5.3,3.31-7.9,7.42-7.9A7.19,7.19,0,0,1,165.31,27.22Z"/><path class="cls-4" d="M181.06,37h-8.4l-1.8,4.42h-1l6.4-15.32h1.18l6.4,15.32h-1Zm-.3-.72-3.89-9.55L173,36.3Z"/><path class="cls-4" d="M212.05,41.44h-3.48L200.92,28.3a53,53,0,0,1,.35,6v7.1h-2.43V26h3.39L210,39.13a40,40,0,0,1-.36-4.72V26h2.44Z"/><path class="cls-4" d="M226.41,35.49v5.95h-2.63V35.51L217.71,26h2.87l4.6,7.65L229.77,26h2.71Z"/><path class="cls-4" d="M243.66,34.88h-2.92v6.56h-2.6V26h5c4.7,0,7.17,1.48,7.17,4.38,0,2.17-1.37,3.48-4.08,4.15l5.09,6.94h-3.09Zm-.3-1.64c2.63,0,4.13-.81,4.13-2.89s-1.34-2.72-4.43-2.72h-2.32v5.61Z"/></g></svg>